<svg xmlns="http://www.w3.org/2000/svg" width="1200" height="675" viewBox="0 0 1200 675" role="img"><title>Relationship communication reflection</title><desc>Editorial illustration of two people listening and connecting through dialogue.</desc><rect width="1200" height="675" rx="36" fill="#FAFAF5"/><circle cx="410" cy="360" r="92" fill="#DCE8B5"/><circle cx="790" cy="360" r="92" fill="#B7D84B"/><circle cx="410" cy="300" r="36" fill="#31543A"/><circle cx="790" cy="300" r="36" fill="#31543A"/><path d="M330 470c26-62 134-62 160 0m220 0c26-62 134-62 160 0" fill="#31543A"/><path d="M500 230c62-90 138-90 200 0" fill="none" stroke="#31543A" stroke-width="20" stroke-linecap="round"/><path d="M585 150l15-26 16 26m-16-26v64" stroke="#B7D84B" stroke-width="14" stroke-linecap="round" stroke-linejoin="round"/><path d="M535 390h130" stroke="#31543A" stroke-width="18" stroke-linecap="round"/><circle cx="565" cy="390" r="8" fill="#B7D84B"/><circle cx="600" cy="390" r="8" fill="#B7D84B"/><circle cx="635" cy="390" r="8" fill="#B7D84B"/></svg>